<svg width="0" height="0" class="hidden">
    <symbol fill="none" xmlns="http://www.w3.org/2000/svg" viewBox="0 0 24 24" id="icon-confirm">
        <path clip-rule="evenodd" d="M12 5C8.13401 5 5 8.13401 5 12C5 15.866 8.13401 19 12 19C15.866 19 19 15.866 19 12C19 8.13401 15.866 5 12 5ZM3 12C3 7.02944 7.02944 3 12 3C16.9706 3 21 7.02944 21 12C21 16.9706 16.9706 21 12 21C7.02944 21 3 16.9706 3 12ZM16.7071 8.29289C17.0976 8.68342 17.0976 9.31658 16.7071 9.70711L10.7071 15.7071C10.3166 16.0976 9.68342 16.0976 9.2929 15.7071L7.29289 13.7071C6.90237 13.3166 6.90237 12.6834 7.29289 12.2929C7.68341 11.9024 8.31658 11.9024 8.7071 12.2929L10 13.5858L15.2929 8.29289C15.6834 7.90237 16.3166 7.90237 16.7071 8.29289Z" fill="#20A945" ></path>
    </symbol>
    <symbol enable-background="new 0 0 300 300" id="icon-form" version="1.1" xml:space="preserve" xmlns="http://www.w3.org/2000/svg" xmlns:xlink="http://www.w3.org/1999/xlink" viewBox="0 0 300 300">
    <g>
      <path d="M150.518,14.797c-74.561,0-135,60.442-135,135c0,74.561,60.439,135,135,135c74.556,0,135-60.439,135-135   C285.518,75.24,225.073,14.797,150.518,14.797z M150.518,265.708c-64.017,0-115.912-51.897-115.912-115.91   c0-64.014,51.895-115.909,115.912-115.909c64.014,0,115.909,51.895,115.909,115.909   C266.427,213.811,214.531,265.708,150.518,265.708z" fill="#334E61"></path>
        <circle cx="150.516" cy="149.798" fill="#334E61" r="104.428"></circle>
        <g>
        <polygon fill="#FFFFFF" points="109.722,205.66 92.256,210.906 96.447,193.147 100.638,175.393 113.919,187.91 127.198,200.416       "></polygon>
            <polygon fill="#FFFFFF" points="133.376,194.11 106.716,169.1 182.121,88.691 208.779,113.704   "></polygon>
      </g>
    </g>
  </symbol>
    <symbol version="1.1" xmlns="http://www.w3.org/2000/svg" xmlnsSketch="http://www.bohemiancoding.com/sketch/ns" xmlns:xlink="http://www.w3.org/1999/xlink" viewBox="0 0 32 32" id="icon-info">
        <title></title>
        <desc></desc>
        <defs></defs>
        <g fill="none" fill-rule="evenodd" id="Page-1" stroke="none" stroke-width="1">
            <g fill="#157EFB" id="icon-29-information">
                <path d="M17.5,28 C24.4035597,28 30,22.4035597 30,15.5 C30,8.59644029 24.4035597,3 17.5,3 C10.5964403,3 5,8.59644029 5,15.5 C5,22.4035597 10.5964403,28 17.5,28 L17.5,28 Z M18,21 L18,14.75 L18,14 L15,14 L15,15 L17,15 L17,21 L15,21 L15,22 L20,22 L20,21 L18,21 L18,21 L18,21 Z M17.5,12 C18.3284272,12 19,11.3284272 19,10.5 C19,9.67157283 18.3284272,9 17.5,9 C16.6715728,9 16,9.67157283 16,10.5 C16,11.3284272 16.6715728,12 17.5,12 L17.5,12 Z" id="information"></path>
            </g>
        </g>
    </symbol>
    <symbol xmlns="http://www.w3.org/2000/svg" viewBox="0 0 60.031 52" id="icon-error-warning">
        <defs></defs>
        <path d="M214.413,746a4.455,4.455,0,0,1-3.84-2.166,4.249,4.249,0,0,1,0-4.334l25.572-43.331a4.483,4.483,0,0,1,7.679,0L269.4,739.5a4.249,4.249,0,0,1,0,4.334,4.452,4.452,0,0,1-3.84,2.166H214.413ZM240,706a4,4,0,0,0-4,4v16a4,4,0,0,0,8,0V710A4,4,0,0,0,240,706Zm0,36a4,4,0,1,0-4-4A4,4,0,0,0,240,742Z" id="attention" transform="translate(-209.969 -694)"></path>
    </symbol>
</svg>